<svg width="1112" height="600" viewBox="0 0 1112 600" fill="none" xmlns="http://www.w3.org/2000/svg">
<path d="M27 285C27 216.2 40.2 162 66.6 122.4C93.4 82.8 136.4 63 195.6 63C254.8 63 297.6 82.8 324 122.4C350.8 162 364.2 216.2 364.2 285C364.2 354.6 350.8 409.2 324 448.8C297.6 488.4 254.8 508.2 195.6 508.2C136.4 508.2 93.4 488.4 66.6 448.8C40.2 409.2 27 354.6 27 285ZM263.4 285C263.4 244.6 259 213.6 250.2 192C241.4 170 223.2 159 195.6 159C168 159 149.8 170 141 192C132.2 213.6 127.8 244.6 127.8 285C127.8 312.2 129.4 334.8 132.6 352.8C135.8 370.4 142.2 384.8 151.8 396C161.8 406.8 176.4 412.2 195.6 412.2C214.8 412.2 229.2 406.8 238.8 396C248.8 384.8 255.4 370.4 258.6 352.8C261.8 334.8 263.4 312.2 263.4 285ZM414.806 427.8C428.406 417 434.606 412 433.406 412.8C472.606 380.4 503.406 353.8 525.806 333C548.606 312.2 567.806 290.4 583.406 267.6C599.006 244.8 606.806 222.6 606.806 201C606.806 184.6 603.006 171.8 595.406 162.6C587.806 153.4 576.406 148.8 561.206 148.8C546.006 148.8 534.006 154.6 525.206 166.2C516.806 177.4 512.606 193.4 512.606 214.2H413.606C414.406 180.2 421.606 151.8 435.206 129C449.206 106.2 467.406 89.4 489.806 78.6C512.606 67.8 537.806 62.4 565.406 62.4C613.006 62.4 648.806 74.6 672.806 99C697.206 123.4 709.406 155.2 709.406 194.4C709.406 237.2 694.806 277 665.606 313.8C636.406 350.2 599.206 385.8 554.006 420.6H716.006V504H414.806V427.8Z" fill="#111111"/>
<path d="M1111.04 329.991C1111.88 328.969 1111.38 328.118 1111.04 327.096C1110.7 326.586 1110.53 326.075 1110.53 325.564C1110.7 323.691 1109.85 321.988 1109.18 320.285C1107.82 316.368 1104.44 313.984 1102.41 310.579C1099.54 305.47 1093.79 303.427 1089.9 299.51C1086.86 296.615 1082.46 295.083 1078.74 293.039C1075.19 291.166 1071.13 290.485 1067.58 288.271C1067.41 288.442 1067.24 288.612 1067.07 288.271C1065.04 287.59 1063.18 286.909 1061.15 286.228C1056.25 284.355 1051.35 282.652 1046.44 281.46C1042.38 280.438 1038.49 279.076 1034.27 278.565C1029.7 277.884 1025.3 277.033 1020.74 276.181C1017.7 275.67 1014.82 274.819 1011.61 274.989C1011.44 274.989 1011.27 274.819 1011.1 274.819C1009.58 273.968 1007.89 273.627 1006.2 273.286C1004.17 272.946 1001.97 272.435 999.94 272.776C997.065 273.116 994.698 271.413 991.823 271.243C990.132 271.073 988.272 271.243 986.581 270.902C983.03 270.221 979.479 269.54 975.759 269.71C973.899 269.71 971.87 269.54 970.01 269.2C967.473 268.859 964.937 268.689 962.569 268.348C959.187 267.837 955.975 267.837 952.593 267.326C947.689 266.816 942.616 266.305 937.712 266.134C933.992 265.964 930.272 266.305 926.721 266.134C919.788 265.964 912.855 266.134 905.922 265.113C904.738 264.942 903.554 264.772 902.371 265.453C902.032 265.624 901.863 265.794 901.525 265.283C898.989 265.113 896.621 264.772 894.085 264.602C891.548 264.261 888.843 264.942 886.306 264.772C884.108 264.602 881.741 264.602 879.542 264.432C878.359 264.432 877.513 265.113 876.329 264.942C874.638 264.602 872.778 264.602 871.087 264.432C870.918 264.772 870.749 264.602 870.58 264.432C862.971 264.602 855.192 264.432 847.583 264.602C843.863 264.772 839.973 264.942 836.253 264.942C832.702 265.113 829.32 265.794 825.769 265.794C821.204 265.794 816.807 267.156 812.072 266.475C808.183 265.964 804.463 267.156 800.574 267.497C798.883 267.667 797.361 266.816 795.839 267.156C793.302 267.667 790.597 268.008 788.06 268.178C783.664 268.518 779.436 269.37 775.04 269.71C773.856 269.881 772.503 271.073 771.151 269.881C770.982 269.71 770.812 269.881 770.643 269.881C768.276 271.754 765.57 271.413 762.865 271.584C757.115 272.265 751.366 273.116 745.617 273.627C743.757 273.797 742.066 274.308 740.375 274.649C736.824 275.5 733.104 276.352 729.553 277.033C725.663 277.884 721.605 278.565 717.716 279.417C713.15 280.268 708.584 280.438 704.357 281.971C703.004 282.482 701.651 282.822 700.299 282.993C697.593 283.163 694.887 283.844 692.351 284.866C691.167 285.377 689.984 285.717 688.8 285.888C684.911 286.398 681.529 288.442 677.809 289.463C676.794 289.804 675.61 289.634 674.596 290.315C672.736 290.996 670.876 292.018 669.016 292.529C664.45 294.061 659.884 295.764 655.826 298.148C652.613 300.021 649.062 301.213 646.187 303.767C644.835 305.13 642.805 306.151 641.283 307.343C639.254 309.046 637.732 311.09 636.041 312.963C633.674 315.517 631.814 318.412 630.461 321.818C629.785 323.35 630.292 325.053 629.616 326.415C627.587 330.672 628.601 334.759 630.461 338.846C630.799 339.016 631.138 339.016 630.799 339.697C630.292 341.06 631.476 341.741 632.152 342.422C633.167 343.784 632.998 345.317 634.181 346.679C636.041 348.723 637.901 350.596 640.1 352.469C642.467 354.512 644.496 356.726 647.371 358.258C649.569 359.28 651.429 360.642 653.289 362.175C653.797 362.175 654.304 362.516 654.642 362.856C654.98 363.026 655.319 363.367 655.826 363.537C661.237 366.092 666.479 369.327 672.059 371.711C675.779 373.243 679.669 375.117 683.558 376.479C687.954 378.011 692.351 378.863 696.748 380.395C701.482 382.098 706.555 382.439 710.952 384.653C713.657 386.015 716.701 386.185 719.576 386.866C721.436 387.377 723.296 388.058 724.987 388.569C727.862 389.761 731.074 389.421 733.949 390.442C736.316 391.294 738.515 391.805 740.882 391.975C742.911 392.145 744.94 392.486 746.801 393.337C747.815 393.848 748.153 393.507 748.322 392.486C748.83 393.167 748.83 394.018 749.844 394.018C753.395 394.359 756.777 395.21 759.99 396.232C763.203 397.254 766.585 397.083 769.629 398.616C769.967 399.297 770.812 398.616 771.151 398.956C771.32 398.956 771.32 399.127 771.151 399.127C770.812 399.127 771.32 399.127 770.982 399.127C770.643 398.956 770.305 398.956 769.967 399.127C769.46 399.467 768.952 399.467 768.445 399.467C765.909 399.638 763.541 399.127 761.005 399.297C757.454 399.638 754.072 399.978 750.521 400.319C748.322 400.489 745.955 401 743.926 401C742.235 401 740.375 401.17 738.684 400.83C738.177 401.17 738.346 401.851 738.177 402.362C738.177 402.532 738.177 402.532 738.007 402.532C738.177 402.532 738.177 402.362 738.177 402.192C738.177 401.681 738.177 401.34 737.838 401C735.978 399.978 734.456 402.532 732.596 401.17C731.582 402.362 730.06 401.851 728.876 402.362C728.538 402.532 728.369 402.703 728.2 402.873C728.031 402.873 727.692 402.873 727.523 402.873C727.185 402.703 727.016 402.362 726.509 402.703C724.818 402.532 722.958 401 721.267 402.703C721.098 402.873 720.759 402.703 720.59 402.532C719.745 401.511 718.561 402.022 717.885 402.532C717.208 403.043 716.701 403.043 716.363 402.703C714.841 401.681 713.826 402.532 712.981 403.554C712.643 403.895 712.474 404.406 711.966 403.895C710.614 402.362 708.923 402.532 707.232 403.214C706.555 403.384 706.217 405.087 705.372 403.384C705.372 403.043 705.541 402.532 705.372 402.362C704.864 401.851 704.695 402.532 704.526 402.703C703.85 403.384 702.835 404.576 702.328 404.065C700.806 402.703 699.791 403.724 698.608 404.235C697.762 404.235 698.1 403.384 697.762 403.043C696.409 403.214 694.887 403.895 693.704 403.895C691.506 403.724 689.476 403.895 687.447 404.065C687.278 404.065 687.109 403.724 687.109 403.554C687.109 403.043 687.109 402.873 686.433 403.043C684.911 403.895 683.22 403.724 681.529 403.384C681.021 403.554 680.345 403.554 679.838 403.384C678.992 402.873 678.316 404.576 677.47 403.724C676.963 403.384 676.456 403.214 675.949 403.384C675.441 404.576 675.103 404.746 674.258 404.576C674.088 404.576 674.088 404.746 673.919 404.746C673.919 405.257 674.765 406.279 673.243 405.598C672.736 405.427 672.397 404.916 671.721 405.087C669.185 405.427 666.479 405.257 663.943 405.087C661.913 404.916 661.068 406.619 660.053 407.641C659.377 408.322 660.73 408.322 660.899 408.833C661.068 409.344 661.068 409.514 660.73 409.855C660.392 410.025 660.73 412.409 661.068 412.409C663.604 412.409 665.972 413.771 668.677 412.75C670.368 412.068 672.228 411.558 674.088 411.728C678.823 412.239 683.558 410.876 688.293 411.047C691.336 411.217 694.38 410.706 697.424 410.536C698.608 410.536 699.96 410.706 701.144 410.536C705.372 410.025 709.43 410.366 713.657 409.855C716.532 409.514 719.407 409.855 722.281 409.514C725.832 409.174 729.383 408.663 732.934 408.322C736.655 407.982 740.544 408.152 744.264 407.471C745.11 407.3 745.955 407.3 746.801 407.471C748.661 407.641 750.352 407.811 752.212 407.641C755.255 407.3 758.299 407.13 761.174 406.619C762.358 406.449 762.865 407.641 764.048 407.3C766.585 406.279 769.46 406.449 771.996 406.279C776.054 405.938 780.113 405.768 784.002 405.257C785.017 405.087 786.2 405.598 787.215 404.916C787.553 404.576 787.722 404.576 788.06 404.916C788.737 404.916 789.582 404.916 790.259 404.916C796.515 404.406 802.772 403.384 809.029 404.576C811.565 405.087 814.101 404.746 816.638 405.257C818.329 405.598 819.851 406.108 821.373 406.449C825.262 407.3 829.32 406.79 833.04 407.811C835.746 408.492 838.621 408.152 841.495 408.492C843.694 408.833 845.723 409.514 848.09 409.344C849.443 409.174 850.796 409.514 852.148 409.684C856.883 410.536 861.618 411.217 866.353 411.387C869.566 411.558 872.609 412.75 875.822 412.239C877.851 411.898 880.05 412.75 882.079 412.75C885.968 412.92 889.857 412.75 893.747 413.09C898.312 413.601 903.216 413.26 907.613 414.623C908.627 415.134 909.811 414.793 910.995 414.963C911.84 414.623 912.686 414.452 913.7 414.112C913.869 415.474 914.715 414.623 915.391 414.793C916.575 414.963 917.928 414.452 918.942 415.474C919.619 415.644 920.295 414.793 921.14 415.304C923.17 415.985 925.368 415.474 927.397 415.474C930.103 415.644 932.977 416.155 935.683 416.326C936.697 416.326 937.543 415.304 938.557 415.985C939.91 416.836 941.432 416.326 942.785 416.496C945.321 416.836 948.027 416.496 950.733 416.836C955.298 417.517 959.864 417.517 964.429 417.688C967.811 417.858 971.024 418.539 974.406 418.199C976.097 418.028 978.126 418.539 979.986 418.539C984.214 418.539 988.272 418.028 992.5 418.199C996.558 418.369 1000.62 417.858 1004.67 418.539C1007.72 419.05 1010.76 418.539 1013.81 418.539C1015.5 418.539 1017.02 419.22 1018.71 419.22C1022.09 419.391 1025.47 419.561 1028.86 418.88C1032.41 418.369 1033.08 417.518 1032.07 413.942C1031.9 413.601 1031.9 413.09 1031.9 412.75C1031.9 411.558 1031.05 411.047 1030.21 411.558C1028.01 412.579 1025.64 411.047 1023.44 412.239C1021.58 413.09 1019.56 411.728 1017.53 411.387C1013.81 410.706 1010.25 411.387 1006.53 411.217C1004.67 411.217 1002.81 410.706 1000.62 411.047C997.065 411.558 993.345 409.855 989.456 411.217C988.61 411.558 987.596 410.195 986.581 410.876C985.736 411.217 984.89 410.706 984.045 411.217C983.199 411.047 982.185 410.536 981.339 410.876C980.832 411.387 980.494 411.217 980.156 410.876C978.126 410.195 975.928 411.217 973.899 410.366C973.561 410.195 973.053 410.195 972.884 410.366C972.208 411.898 971.532 410.876 970.855 410.536C970.348 410.366 969.841 409.684 969.164 410.536C967.98 411.898 966.628 411.387 965.444 410.536C963.922 409.514 962.738 410.025 961.555 411.217C961.217 411.558 960.709 411.558 960.202 411.217C959.864 410.876 960.033 410.706 960.371 410.366C960.54 410.195 960.878 409.855 960.54 409.514C960.033 409.003 959.695 409.344 959.357 409.684C958.342 410.536 957.327 411.558 956.144 409.855C955.636 409.514 955.298 409.174 954.622 409.344C954.115 409.514 954.453 410.195 954.114 410.536C953.776 410.366 953.438 410.195 953.1 409.855C952.931 409.684 952.593 409.684 952.423 409.514C952.254 409.344 952.085 409.174 951.916 409.174C948.534 410.195 945.152 409.514 941.939 408.833C939.741 408.492 937.374 409.344 935.514 407.811C935.006 407.471 933.823 407.471 933.315 407.811C932.639 408.322 932.132 408.492 931.286 408.152C930.61 407.982 929.934 408.322 929.595 409.174C929.088 409.003 928.75 410.366 927.904 409.514C927.397 409.003 926.552 408.152 925.875 409.344C924.861 408.322 923.508 409.684 922.493 409.174C919.111 407.3 915.222 407.471 911.671 407.471C908.458 407.471 905.245 406.96 902.032 407.13C898.481 407.3 894.761 405.257 891.041 406.79C890.872 406.79 890.365 406.79 890.365 406.619C889.688 405.427 889.012 406.449 888.335 406.449C887.828 406.449 887.321 406.449 886.644 406.449C885.461 407.13 884.615 405.598 883.432 406.108C882.248 406.619 881.064 406.79 879.881 407.3C879.711 406.619 880.895 406.279 880.05 405.598C878.359 405.427 876.499 405.768 874.808 405.087C874.639 405.087 874.469 405.257 874.3 405.427C873.793 406.108 873.286 405.938 872.778 405.427C871.087 404.065 869.735 404.916 868.551 406.449C867.536 404.235 865.169 403.724 862.971 405.087C862.463 405.598 861.956 405.598 861.618 404.916C861.449 404.576 861.111 404.065 860.603 404.406C859.927 404.406 859.42 404.746 858.912 405.087C858.574 405.257 858.236 405.257 858.067 404.916C857.56 403.554 857.221 403.554 855.869 404.406C855.192 404.746 854.347 404.746 854.347 404.235C854.009 402.703 853.332 403.043 852.148 403.214C850.119 403.554 848.09 402.532 845.892 402.532C845.215 402.532 844.032 402.362 843.355 401.851C843.017 401.34 842.51 401.34 842.172 401.34C841.834 401.17 841.664 401.851 841.326 401.681C841.326 401.681 841.326 401.681 841.157 401.511C840.988 401.34 841.157 401.34 841.157 401.34C841.495 401.34 841.834 401.34 842.003 401.34C842.679 401.34 843.017 401 843.355 400.489C845.385 400.489 847.583 401 849.612 400.659C852.656 400.148 855.869 399.978 858.912 399.297C860.096 398.956 860.772 400.489 861.956 399.808C864.324 398.616 867.029 398.956 869.396 398.616C873.624 398.275 877.851 397.594 882.079 397.083C883.432 396.913 884.615 397.424 885.799 397.083C889.35 396.062 893.07 396.062 896.621 395.721C900.51 395.381 904.4 395.38 908.12 394.699C911.164 394.189 914.207 394.529 917.082 393.678C918.604 393.337 920.126 393.507 921.817 392.997C924.184 392.315 926.721 391.975 929.088 391.805C931.455 391.634 933.823 390.953 936.19 390.953C938.727 390.953 941.263 389.591 943.799 389.931C946.505 390.272 949.211 389.591 951.747 388.91C953.776 388.399 955.975 387.888 958.004 388.058C960.202 388.229 962.569 388.058 964.091 387.377C967.811 386.015 971.701 386.866 975.252 385.504C977.112 384.823 979.31 384.482 981.17 384.312C986.074 383.801 990.809 382.439 995.713 381.928C1000.79 381.417 1005.69 379.714 1010.76 379.544C1012.45 379.374 1013.98 378.863 1015.33 378.522C1019.05 377.501 1022.6 376.479 1026.32 375.457C1030.21 374.265 1034.27 373.754 1038.16 372.392C1040.69 371.541 1043.23 371.881 1045.77 371.03C1047.63 370.519 1049.49 369.668 1051.35 369.157C1053.21 368.646 1055.07 368.305 1057.1 367.794C1059.8 367.113 1062.17 366.092 1064.7 365.07C1067.24 363.878 1069.95 363.708 1072.31 362.345C1074.34 361.153 1076.71 360.472 1078.91 359.791C1079.25 359.791 1079.25 359.11 1079.75 359.28C1081.95 358.258 1084.15 357.066 1086.35 356.045C1095.82 351.447 1100.72 348.382 1106.64 340.719C1108.5 338.165 1109.68 335.44 1110.36 332.375C1110.7 331.864 1110.7 331.183 1110.36 330.672C1111.04 330.502 1111.04 330.161 1111.04 329.991ZM930.61 410.195C930.441 410.195 930.272 410.025 930.103 410.025C930.272 410.025 930.441 410.025 930.61 410.195ZM1104.1 332.375C1103.94 332.716 1103.6 333.056 1103.26 333.227C1102.92 333.908 1102.08 334.419 1102.41 335.27C1102.58 335.781 1102.41 335.951 1101.74 336.292C1100.72 336.632 1099.71 336.973 1100.38 338.505C1100.55 339.016 1099.88 339.016 1099.54 339.187C1098.02 339.527 1097.51 340.549 1097.85 342.081C1098.02 342.422 1097.85 342.933 1097.51 342.763C1095.31 341.911 1094.3 343.273 1093.11 344.636C1092.77 345.147 1092.44 345.657 1091.76 345.657C1091.42 345.657 1091.25 345.998 1091.25 346.339C1090.24 347.19 1089.39 348.212 1087.87 348.041C1087.36 348.041 1087.19 348.552 1087.03 349.063C1086.86 349.744 1086.52 350.085 1085.84 350.085C1085.5 349.744 1085.33 349.404 1085 349.233C1083.47 349.233 1083.14 350.766 1081.78 351.277C1079.75 351.958 1077.89 353.831 1076.03 353.831C1073.16 353.831 1071.47 356.045 1068.76 356.215C1067.75 356.215 1066.56 356.726 1065.21 356.726C1064.37 357.918 1063.35 358.94 1061.66 358.769C1060.98 359.961 1059.8 359.45 1058.79 359.961C1058.28 361.494 1057.1 359.621 1056.42 360.302C1051.68 360.813 1047.46 362.856 1042.89 364.048C1040.86 364.559 1038.83 365.581 1036.8 365.751C1034.44 365.921 1032.24 367.113 1029.87 366.773H1029.7C1028.18 367.965 1026.49 368.476 1024.63 368.816C1024.12 369.327 1023.44 369.157 1022.94 369.668C1022.6 369.838 1022.09 370.008 1021.75 370.178C1020.91 370.689 1019.72 370.178 1019.05 371.03C1018.88 371.2 1018.71 371.37 1018.54 371.37C1017.19 371.541 1016.17 370.178 1014.82 370.86C1014.48 371.37 1014.31 372.052 1013.47 371.711C1012.45 371.2 1011.44 371.03 1010.93 372.392C1010.59 373.243 1010.09 372.562 1009.58 372.392C1008.73 372.051 1007.89 371.711 1007.04 372.733C1006.37 373.754 1005.35 374.265 1004 373.584C1002.48 372.733 1001.12 373.754 999.94 374.606C999.433 375.117 999.095 374.776 998.756 374.265C998.587 373.584 998.08 373.414 997.742 374.095C997.065 375.287 996.051 375.627 995.036 376.309C994.529 374.946 993.683 375.117 992.669 375.457C992.669 375.627 992.669 375.968 992.5 376.138C991.485 376.99 991.147 375.627 990.64 375.287C989.456 374.436 988.78 376.819 987.596 375.798C986.581 377.501 984.383 375.287 983.368 377.16C983.03 377.841 982.016 375.968 981.17 376.819C980.832 377.33 980.494 376.99 980.156 376.649C979.817 376.309 979.479 376.138 979.141 376.479C978.126 377.16 977.112 377.33 975.928 377.501C974.914 377.33 974.068 377.501 973.053 377.501C972.377 377.671 971.701 378.182 970.855 378.352C970.179 378.182 969.671 377.671 968.995 378.011C966.29 379.544 963.415 380.225 960.202 380.055C958.173 380.055 956.144 379.885 954.284 380.395C951.578 381.417 948.703 381.417 945.829 382.269C945.321 382.439 944.983 382.098 944.476 382.098C943.969 381.758 943.292 382.609 942.785 382.269C939.572 383.29 936.19 383.461 932.808 383.29C932.301 383.29 932.132 383.461 931.624 383.631C930.61 384.142 929.595 385.334 928.243 384.142C928.073 384.142 927.735 384.482 927.397 384.653C926.721 385.163 926.044 385.674 924.861 385.504C923.677 385.334 922.324 384.823 921.31 386.355C921.14 386.696 920.802 386.355 920.464 386.185C919.111 385.504 917.758 385.334 916.575 386.526C916.237 386.866 915.729 387.207 915.391 386.355C915.391 386.185 915.222 386.015 915.053 385.845C913.362 388.399 909.473 384.653 908.12 388.229C907.951 388.569 907.613 388.569 907.105 388.399C903.723 386.866 903.723 386.866 901.018 388.91C900.341 388.739 900.68 388.229 900.68 387.888C900.68 387.547 900.68 387.207 900.341 387.037C900.003 386.866 899.665 387.207 899.496 387.377C898.65 388.399 897.805 389.761 896.114 388.399C895.945 388.229 895.268 388.229 895.099 388.399C893.916 389.931 893.239 388.399 892.225 388.058C891.21 387.718 889.688 388.229 888.674 388.739C887.997 389.08 887.659 389.08 887.152 388.739C886.644 388.399 886.306 388.569 885.968 388.91C885.123 389.421 882.755 389.25 881.91 388.739C881.064 388.229 880.219 388.91 879.542 389.25C878.697 389.591 877.851 389.591 877.006 389.25C875.653 388.91 874.469 388.569 873.117 389.761C872.44 390.272 871.087 389.591 870.073 390.442C869.735 390.783 869.735 392.826 868.382 391.464C867.367 390.442 866.691 391.805 866.014 391.634C865 391.464 863.985 391.805 863.14 391.634C859.251 391.294 855.361 391.464 851.472 392.145C849.105 392.486 846.568 393.507 844.201 392.315C842.679 393.848 840.819 392.656 839.128 393.167C837.606 393.507 836.084 393.337 834.731 393.167C834.224 393.167 834.055 393.337 833.548 393.507C832.364 394.018 831.519 394.87 829.997 394.189C828.982 393.678 828.306 395.551 826.784 395.21C826.277 395.04 825.6 395.381 825.093 394.87C824.924 394.529 824.247 394.529 824.247 394.699C823.571 396.913 822.218 395.21 821.204 395.21C820.358 395.21 819.344 394.699 818.498 395.551C818.16 395.891 817.653 395.551 817.314 395.38C816.3 395.04 815.285 394.529 814.609 395.891C814.271 396.572 813.763 396.062 813.763 395.891C812.58 395.04 811.396 395.38 810.212 396.062C809.874 396.232 809.367 396.743 808.859 396.402C806.83 395.21 804.463 395.551 802.265 395.551C799.221 395.38 796.515 393.337 793.472 394.359C792.795 394.529 792.119 394.529 791.611 393.848C791.442 393.678 791.273 393.337 790.935 393.507C788.906 394.699 787.215 393.678 785.355 392.997C785.017 392.826 784.678 392.826 784.34 393.167C784.171 393.507 784.002 393.848 783.495 393.507C782.142 392.486 780.958 391.294 779.098 392.656H778.929C777.745 389.931 775.04 392.997 773.687 391.123C773.011 390.272 772.165 390.613 771.658 391.123C770.474 392.315 769.291 391.975 768.107 391.123C767.43 390.613 766.754 390.783 766.078 390.613C765.57 390.272 765.401 390.783 765.063 390.953C764.387 391.294 764.048 391.294 763.879 390.442C763.71 388.91 763.034 389.931 762.527 390.272C761.512 390.613 760.667 391.294 759.821 389.931C760.497 389.421 759.652 389.25 758.806 389.931C758.299 390.272 757.623 390.442 757.454 389.761C757.285 388.058 756.439 388.399 755.086 388.399C752.888 388.229 750.521 387.888 748.492 387.207C748.322 387.207 748.322 386.866 748.153 386.696C747.815 386.355 747.139 386.696 746.801 386.355C746.631 386.185 746.631 385.845 746.462 386.015C744.771 386.355 743.08 386.015 741.558 385.163C740.206 384.482 738.515 384.823 737.162 383.971C736.486 383.461 735.809 384.142 735.133 384.142C734.625 384.142 734.456 385.163 733.78 384.823C733.104 383.461 731.413 383.971 730.567 383.12C729.722 382.609 728.369 383.461 727.692 382.269C724.818 380.736 721.774 380.055 718.73 379.203C716.025 378.522 712.981 378.863 710.444 376.649C710.106 376.309 708.923 377.33 708.077 376.649C706.048 375.287 703.342 375.457 701.313 373.925C700.806 373.584 700.468 373.754 699.96 373.754C698.777 373.754 697.593 374.265 696.748 372.733C696.578 372.222 695.733 372.392 695.395 372.562C693.704 373.414 692.689 372.392 691.506 371.541C690.66 370.86 689.645 371.881 688.631 371.2C688.124 370.86 687.954 370.519 687.785 370.008C687.109 369.668 686.433 368.816 685.418 369.497C684.911 369.838 684.573 368.986 684.403 368.986C682.205 368.476 680.345 367.284 678.147 366.773C677.301 366.602 677.301 367.624 676.625 367.454C675.949 365.581 673.919 363.878 672.397 364.389C670.368 364.9 670.368 364.048 670.706 362.516C669.354 362.686 667.663 364.048 666.817 361.494C666.479 360.472 664.957 361.494 664.112 360.983C663.773 360.472 664.281 359.791 663.773 359.28C662.082 358.429 659.884 358.769 658.87 356.726C657.01 357.407 656.502 354.853 654.98 354.853C654.642 354.512 654.98 353.831 654.473 353.661C652.951 354.001 651.937 352.809 651.26 351.958C649.907 350.425 647.878 349.744 646.864 348.041C646.525 347.531 646.018 347.871 645.511 347.701C642.805 347.531 641.791 345.317 640.776 343.444C639.254 340.549 637.394 337.654 636.211 334.589C635.534 332.716 635.365 330.843 635.365 329.14C635.365 326.586 636.38 324.202 637.901 322.328C639.423 321.307 639.592 319.434 640.438 318.752C641.96 317.56 641.791 315.347 643.482 314.495C643.651 314.325 643.82 314.155 643.989 314.155C644.496 313.814 644.665 313.303 645.173 312.963C645.342 312.792 645.68 312.622 645.849 312.452C646.018 312.282 646.356 312.111 646.525 312.111C647.709 311.6 649.062 311.6 649.231 309.898C649.231 309.557 649.569 309.727 649.907 309.727C651.091 309.727 652.275 309.387 652.275 307.684C652.275 306.662 653.12 307.173 653.458 307.173C655.149 307.003 655.149 307.003 655.995 305.13C655.657 304.789 655.657 304.449 655.995 304.278C656.502 303.938 656.84 304.278 657.179 304.619C659.039 304.278 660.899 304.278 661.744 302.065C661.913 301.554 662.421 302.065 662.759 301.894C664.45 301.383 665.803 300.021 667.832 300.021C668.17 300.021 667.832 298.659 669.016 298.829C669.523 298.829 669.523 299.51 669.861 299.681C670.876 300.362 671.383 299.51 671.89 298.829C672.228 298.659 672.397 298.659 672.736 298.829C673.412 298.148 674.258 297.807 675.441 297.637C676.625 297.637 677.809 296.615 679.161 296.275C680.007 295.934 680.852 297.637 681.36 296.105C681.698 295.594 682.374 295.594 683.051 295.253C683.896 294.742 684.911 295.423 685.756 294.742C686.602 294.402 687.447 294.572 688.293 294.402C688.462 293.891 688.8 293.721 689.307 293.891C690.322 294.231 690.829 293.721 691.167 292.869C692.013 292.188 694.549 291.847 696.071 291.507C700.637 290.485 705.202 290.315 709.768 288.782C711.797 288.101 713.996 286.739 716.363 287.25C717.208 287.42 717.208 286.228 717.885 286.228C719.745 286.058 721.605 285.717 723.634 285.547C724.141 285.547 724.48 285.547 724.818 285.036C725.156 284.866 725.325 284.866 725.663 285.036C725.832 285.206 725.832 285.377 726.001 285.206C727.692 284.355 729.383 283.674 731.413 283.674C732.089 283.333 732.765 283.163 733.611 282.993C734.118 282.822 734.625 281.63 735.471 282.822C735.64 282.993 736.147 282.993 736.147 282.822C736.993 281.29 738.177 281.801 739.36 282.141C740.375 282.312 741.558 282.482 742.235 281.29C742.235 281.12 742.573 281.12 742.573 281.12C744.264 282.822 745.955 280.438 747.646 280.949C748.999 281.46 749.675 280.949 750.352 280.098C750.859 279.246 750.859 279.246 751.873 279.757C753.226 280.438 755.086 280.779 756.608 279.246C757.115 278.736 757.792 277.714 758.299 279.417C758.637 279.757 758.806 279.757 759.145 279.417C759.314 279.246 759.652 279.246 759.821 278.906C760.667 277.884 761.681 277.884 762.696 278.565C763.203 278.565 763.541 278.736 764.048 278.565C764.556 278.395 764.725 276.862 765.57 278.225C765.909 278.906 766.585 278.736 767.43 278.565C768.952 278.054 770.474 278.054 771.996 277.884C773.349 277.714 775.04 278.225 776.224 277.203C776.224 276.522 775.716 278.565 776.9 277.884C777.576 277.544 778.76 277.203 779.944 277.373C780.789 278.225 781.804 277.373 782.818 277.544C782.987 277.544 783.157 277.544 783.157 277.544C783.664 277.033 784.34 277.714 784.848 277.203C785.524 276.862 786.031 277.714 786.708 277.544C787.215 277.373 787.722 276.862 788.06 276.522C788.229 276.181 788.229 275.841 788.399 275.5C790.428 276.011 792.626 275.16 794.655 275.16C796.684 275.33 798.714 275.5 800.743 275.5C803.956 275.5 807.168 274.989 810.212 274.308C811.227 274.138 812.072 275.33 813.087 274.308C813.932 275.5 814.609 273.968 815.454 274.138C818.16 274.308 820.865 273.797 823.402 274.478C824.078 274.649 824.416 274.138 825.093 273.968C825.938 273.797 826.784 272.605 827.46 273.968C827.798 274.308 827.967 274.138 828.306 273.968C829.151 273.286 830.335 272.946 831.349 272.946C832.533 272.776 833.717 272.946 834.731 272.265C834.9 272.435 834.9 272.435 835.07 272.605C835.915 273.116 836.93 272.946 837.944 273.457C838.452 273.457 838.79 273.627 839.128 273.116C839.635 272.265 840.143 272.094 840.65 273.116C841.157 273.797 842.003 273.286 842.172 273.116C843.355 271.924 844.37 272.605 845.554 273.116C846.399 273.457 846.737 273.116 847.245 272.605C847.921 272.435 848.09 271.584 848.936 271.924C850.796 273.116 852.656 273.627 854.516 271.924C855.023 271.413 855.7 271.584 856.207 271.924C856.376 272.435 856.545 272.605 857.052 272.265C857.898 271.924 858.574 270.902 859.589 272.094C859.758 272.435 860.942 272.776 861.449 271.754C861.956 271.073 862.971 271.413 863.478 270.562C863.985 271.413 862.463 271.754 863.478 272.435C863.985 272.776 864.493 272.605 865.169 272.605C866.522 272.435 867.875 271.584 869.227 272.435C869.566 272.605 869.904 272.776 870.073 272.435C871.087 271.413 871.764 271.754 872.609 272.605C872.778 272.776 873.117 272.435 873.286 272.435C873.793 271.924 874.131 272.435 874.469 272.776C875.653 272.605 877.006 272.605 878.19 272.435C880.05 272.435 881.741 272.605 883.601 272.605C884.277 272.605 884.784 272.605 885.461 272.435C886.306 272.605 886.814 272.265 886.983 271.413C889.012 271.924 891.21 271.413 892.901 271.924C895.268 272.605 897.636 272.776 900.003 272.776C902.709 272.946 905.414 272.776 908.12 272.776C909.304 272.776 910.487 272.435 911.502 273.457C911.84 273.797 912.347 273.457 912.516 273.286C913.193 272.776 914.038 272.776 914.376 272.946C916.237 273.968 918.266 272.776 919.957 273.457C921.648 274.138 923.508 272.776 924.691 273.116C927.059 273.968 929.257 271.924 931.455 273.457C931.963 273.797 933.315 271.924 934.161 273.457C935.176 274.138 936.19 274.478 937.374 273.968C937.543 273.797 937.543 273.627 937.712 273.457C939.572 274.989 941.939 272.776 943.799 274.138C944.138 274.478 944.645 274.478 945.152 274.308C945.66 274.138 946.167 273.968 946.674 273.457C947.52 272.265 947.351 273.627 947.689 273.968C949.38 274.819 951.071 275.16 952.762 273.797C953.1 273.457 953.607 273.286 954.114 273.627C954.622 273.968 954.114 274.308 953.945 274.649C953.776 274.819 953.945 275.16 953.945 275.33C954.114 275.5 954.453 275.5 954.622 275.33C956.313 272.946 957.835 274.649 959.357 275.5C960.033 275.16 960.709 274.989 961.386 275.5C962.231 276.522 963.077 275.5 963.922 275.5C966.628 275.5 969.502 275.67 971.701 276.522C973.392 277.203 975.421 276.011 976.943 277.373C977.112 277.544 978.972 278.225 979.31 278.054C980.663 277.544 981.847 278.225 983.199 278.225C984.214 278.054 984.89 277.203 986.074 277.373C986.75 278.906 987.934 276.692 988.61 277.714C989.287 278.906 990.64 277.373 991.316 278.225C994.698 279.587 998.418 279.757 1001.97 280.268C1004.51 280.609 1007.04 280.098 1009.41 281.63C1009.75 281.801 1011.44 280.779 1012.12 281.29C1013.47 282.652 1014.99 282.141 1016.51 282.482C1018.37 282.993 1020.23 282.993 1021.92 283.333C1024.12 283.844 1026.49 282.652 1028.35 284.525C1028.86 285.036 1029.36 284.185 1030.04 284.185C1030.72 284.696 1031.73 284.696 1032.24 285.377C1033.25 285.377 1034.1 286.569 1035.11 285.377C1035.28 285.036 1035.62 285.547 1035.96 285.717C1036.8 286.228 1037.65 287.42 1039 286.228C1039.34 285.887 1039.68 286.398 1040.02 286.569C1040.69 286.909 1041.03 287.59 1041.88 287.59C1042.72 287.761 1043.4 286.569 1044.24 287.59C1045.43 287.59 1046.1 288.782 1047.29 288.953C1048.13 288.953 1048.81 289.293 1049.49 288.612C1050.16 287.931 1050.5 288.782 1050.84 289.293C1050.84 290.315 1051.51 289.974 1052.02 289.804C1052.53 289.634 1053.04 289.463 1053.54 289.463C1053.71 289.463 1054.22 289.463 1054.22 289.634C1055.23 291.337 1055.23 291.337 1057.1 290.655C1057.26 290.996 1058.11 290.485 1057.94 291.337C1057.26 292.529 1057.94 293.039 1058.96 292.869C1061.15 292.699 1063.18 294.061 1065.21 294.572C1066.06 294.742 1067.58 295.423 1068.42 296.615C1068.93 296.445 1069.1 296.786 1069.27 297.126C1070.79 296.615 1071.64 298.659 1073.16 297.978C1073.33 297.978 1073.33 298.489 1073.16 298.829C1072.99 298.999 1073.16 299.51 1073.33 299.34C1074.17 298.489 1074.85 299.851 1075.7 299.51C1076.54 300.191 1077.89 299.851 1078.57 300.873C1079.42 300.702 1080.26 300.021 1080.43 301.554C1080.6 302.746 1081.78 301.894 1082.46 302.575C1086.01 305.47 1089.39 308.706 1093.28 311.26C1094.97 312.282 1097 313.474 1097.68 315.176C1098.35 316.709 1100.22 316.709 1100.55 318.752C1100.89 320.285 1101.91 321.988 1102.92 323.52C1104.44 325.734 1105.29 327.948 1104.27 330.502C1103.94 331.183 1104.95 331.864 1104.1 332.375Z" fill="#FDBB06"/>
<path d="M709.739 192.412C709.333 192.006 708.579 191.455 707.477 190.759C706.433 190.063 705.128 189.396 703.562 188.758C702.054 188.12 700.401 187.569 698.603 187.105C696.805 186.583 694.978 186.322 693.122 186.322C689.874 186.322 687.409 186.931 685.727 188.149C684.103 189.367 683.291 191.078 683.291 193.282C683.291 194.964 683.813 196.298 684.857 197.284C685.901 198.27 687.467 199.111 689.555 199.807C691.643 200.503 694.253 201.257 697.385 202.069C701.445 203.055 704.954 204.273 707.912 205.723C710.928 207.115 713.219 208.971 714.785 211.291C716.409 213.553 717.221 216.569 717.221 220.339C717.221 223.645 716.612 226.487 715.394 228.865C714.176 231.185 712.494 233.07 710.348 234.52C708.202 235.97 705.766 237.043 703.04 237.739C700.314 238.377 697.414 238.696 694.34 238.696C691.266 238.696 688.192 238.377 685.118 237.739C682.044 237.101 679.086 236.202 676.244 235.042C673.402 233.824 670.792 232.374 668.414 230.692L673.721 220.339C674.243 220.861 675.171 221.557 676.505 222.427C677.839 223.239 679.463 224.08 681.377 224.95C683.291 225.762 685.379 226.458 687.641 227.038C689.903 227.618 692.194 227.908 694.514 227.908C697.762 227.908 700.227 227.357 701.909 226.255C703.591 225.153 704.432 223.587 704.432 221.557C704.432 219.701 703.765 218.251 702.431 217.207C701.097 216.163 699.241 215.264 696.863 214.51C694.485 213.698 691.672 212.828 688.424 211.9C684.538 210.798 681.29 209.58 678.68 208.246C676.07 206.854 674.127 205.114 672.851 203.026C671.575 200.938 670.937 198.328 670.937 195.196C670.937 190.962 671.923 187.424 673.895 184.582C675.925 181.682 678.651 179.507 682.073 178.057C685.495 176.549 689.294 175.795 693.47 175.795C696.37 175.795 699.096 176.114 701.648 176.752C704.258 177.39 706.694 178.231 708.956 179.275C711.218 180.319 713.248 181.45 715.046 182.668L709.739 192.412ZM751.461 235.651C750.475 236.057 749.286 236.521 747.894 237.043C746.502 237.565 744.994 237.971 743.37 238.261C741.804 238.609 740.209 238.783 738.585 238.783C736.439 238.783 734.467 238.406 732.669 237.652C730.871 236.898 729.421 235.709 728.319 234.085C727.275 232.403 726.753 230.228 726.753 227.56V201.373H720.75V192.412H726.753V177.622H738.411V192.412H747.981V201.373H738.411V223.645C738.469 225.211 738.904 226.342 739.716 227.038C740.528 227.734 741.543 228.082 742.761 228.082C743.979 228.082 745.168 227.879 746.328 227.473C747.488 227.067 748.416 226.719 749.112 226.429L751.461 235.651ZM758.32 246.874C759.364 247.106 760.321 247.309 761.191 247.483C762.119 247.657 762.902 247.744 763.54 247.744C764.642 247.744 765.541 247.454 766.237 246.874C766.991 246.352 767.716 245.366 768.412 243.916C769.108 242.524 769.833 240.552 770.587 238L752.578 192.412H764.671L776.938 226.081L787.726 192.412H798.862L779.722 247.048C779.026 249.078 777.953 250.905 776.503 252.529C775.111 254.211 773.342 255.516 771.196 256.444C769.108 257.43 766.759 257.923 764.149 257.923C763.221 257.923 762.293 257.836 761.365 257.662C760.437 257.546 759.422 257.314 758.32 256.966V246.874ZM805.109 174.49H816.767V223.384C816.767 225.472 817.115 226.893 817.811 227.647C818.507 228.343 819.464 228.691 820.682 228.691C821.61 228.691 822.567 228.575 823.553 228.343C824.539 228.111 825.409 227.821 826.163 227.473L827.729 236.347C826.163 237.101 824.336 237.681 822.248 238.087C820.16 238.493 818.275 238.696 816.593 238.696C812.939 238.696 810.097 237.739 808.067 235.825C806.095 233.853 805.109 231.069 805.109 227.473V174.49ZM853.949 238.87C850.295 238.87 846.989 238.261 844.031 237.043C841.073 235.767 838.55 234.056 836.462 231.91C834.374 229.706 832.75 227.212 831.59 224.428C830.488 221.586 829.937 218.599 829.937 215.467C829.937 211.117 830.894 207.144 832.808 203.548C834.78 199.952 837.564 197.081 841.16 194.935C844.814 192.731 849.106 191.629 854.036 191.629C859.024 191.629 863.287 192.731 866.825 194.935C870.363 197.081 873.06 199.952 874.916 203.548C876.83 207.086 877.787 210.914 877.787 215.032C877.787 215.728 877.758 216.453 877.7 217.207C877.642 217.903 877.584 218.483 877.526 218.947H842.291C842.523 221.267 843.19 223.297 844.292 225.037C845.452 226.777 846.902 228.111 848.642 229.039C850.44 229.909 852.354 230.344 854.384 230.344C856.704 230.344 858.879 229.793 860.909 228.691C862.997 227.531 864.418 226.023 865.172 224.167L875.177 226.951C874.075 229.271 872.48 231.33 870.392 233.128C868.362 234.926 865.955 236.347 863.171 237.391C860.387 238.377 857.313 238.87 853.949 238.87ZM842.03 211.552H865.868C865.636 209.232 864.969 207.231 863.867 205.549C862.823 203.809 861.431 202.475 859.691 201.547C857.951 200.561 856.008 200.068 853.862 200.068C851.774 200.068 849.86 200.561 848.12 201.547C846.438 202.475 845.046 203.809 843.944 205.549C842.9 207.231 842.262 209.232 842.03 211.552ZM949.637 212.509C949.637 217.613 948.651 222.166 946.679 226.168C944.765 230.112 942.097 233.215 938.675 235.477C935.311 237.739 931.483 238.87 927.191 238.87C922.899 238.87 919.042 237.739 915.62 235.477C912.256 233.215 909.588 230.112 907.616 226.168C905.702 222.166 904.745 217.613 904.745 212.509C904.745 207.405 905.702 202.881 907.616 198.937C909.588 194.935 912.256 191.803 915.62 189.541C919.042 187.221 922.899 186.061 927.191 186.061C931.483 186.061 935.311 187.221 938.675 189.541C942.097 191.803 944.765 194.935 946.679 198.937C948.651 202.881 949.637 207.405 949.637 212.509ZM937.892 212.509C937.892 209.377 937.428 206.651 936.5 204.331C935.63 201.953 934.383 200.097 932.759 198.763C931.135 197.429 929.279 196.762 927.191 196.762C925.045 196.762 923.16 197.429 921.536 198.763C919.912 200.097 918.636 201.953 917.708 204.331C916.838 206.651 916.403 209.377 916.403 212.509C916.403 215.641 916.838 218.367 917.708 220.687C918.636 223.007 919.912 224.834 921.536 226.168C923.16 227.502 925.045 228.169 927.191 228.169C929.279 228.169 931.106 227.502 932.672 226.168C934.296 224.834 935.572 223.007 936.5 220.687C937.428 218.309 937.892 215.583 937.892 212.509ZM987.07 217.468C989.506 217.874 991.623 218.802 993.421 220.252C995.219 221.644 996.611 223.442 997.597 225.646C998.641 227.85 999.163 230.286 999.163 232.954C999.163 236.55 998.235 239.682 996.379 242.35C994.523 245.018 991.884 247.077 988.462 248.527C985.098 250.035 981.125 250.789 976.543 250.789C972.135 250.789 968.22 250.064 964.798 248.614C961.434 247.222 958.621 245.163 956.359 242.437L962.971 234.172C964.479 236.028 966.277 237.478 968.365 238.522C970.511 239.624 973.121 240.175 976.195 240.175C979.733 240.175 982.43 239.45 984.286 238C986.142 236.608 987.07 234.491 987.07 231.649C987.07 228.633 985.997 226.313 983.851 224.689C981.705 223.065 978.457 222.253 974.107 222.253H971.671V213.553H974.368C977.906 213.553 980.661 212.741 982.633 211.117C984.663 209.493 985.678 207.463 985.678 205.027C985.678 203.461 985.301 202.156 984.547 201.112C983.793 200.068 982.749 199.285 981.415 198.763C980.139 198.241 978.631 197.98 976.891 197.98C974.281 197.98 971.903 198.589 969.757 199.807C967.611 201.025 965.871 202.736 964.537 204.94L957.229 196.762C958.447 194.964 960.1 193.427 962.188 192.151C964.334 190.817 966.77 189.773 969.496 189.019C972.28 188.265 975.18 187.888 978.196 187.888C982.14 187.888 985.591 188.526 988.549 189.802C991.565 191.078 993.914 192.876 995.596 195.196C997.278 197.516 998.119 200.213 998.119 203.287C998.119 205.549 997.655 207.695 996.727 209.725C995.799 211.755 994.494 213.466 992.812 214.858C991.188 216.192 989.274 217.062 987.07 217.468ZM689.729 297.23H701.909L724.616 359H712.262L706.52 343.601H684.944L679.289 359H666.935L689.729 297.23ZM704.345 335.162L695.819 309.671L686.945 335.162H704.345ZM757.578 359.87C754.04 359.87 750.908 359.087 748.182 357.521C745.514 355.897 743.426 353.722 741.918 350.996V377.531H730.26V313.412H740.439V321.242C742.179 318.574 744.383 316.486 747.051 314.978C749.719 313.412 752.764 312.629 756.186 312.629C759.26 312.629 762.073 313.238 764.625 314.456C767.235 315.674 769.497 317.385 771.411 319.589C773.325 321.735 774.804 324.229 775.848 327.071C776.95 329.855 777.501 332.871 777.501 336.119C777.501 340.527 776.631 344.529 774.891 348.125C773.209 351.721 770.86 354.592 767.844 356.738C764.886 358.826 761.464 359.87 757.578 359.87ZM753.663 349.952C755.461 349.952 757.085 349.575 758.535 348.821C759.985 348.067 761.232 347.052 762.276 345.776C763.378 344.442 764.19 342.963 764.712 341.339C765.292 339.657 765.582 337.917 765.582 336.119C765.582 334.205 765.263 332.436 764.625 330.812C764.045 329.188 763.175 327.767 762.015 326.549C760.855 325.273 759.492 324.287 757.926 323.591C756.418 322.895 754.765 322.547 752.967 322.547C751.865 322.547 750.734 322.75 749.574 323.156C748.472 323.504 747.399 324.026 746.355 324.722C745.311 325.418 744.383 326.23 743.571 327.158C742.817 328.086 742.266 329.101 741.918 330.203V340.904C742.614 342.586 743.542 344.123 744.702 345.515C745.92 346.907 747.312 348.009 748.878 348.821C750.444 349.575 752.039 349.952 753.663 349.952ZM812.718 359.87C809.18 359.87 806.048 359.087 803.322 357.521C800.654 355.897 798.566 353.722 797.058 350.996V377.531H785.4V313.412H795.579V321.242C797.319 318.574 799.523 316.486 802.191 314.978C804.859 313.412 807.904 312.629 811.326 312.629C814.4 312.629 817.213 313.238 819.765 314.456C822.375 315.674 824.637 317.385 826.551 319.589C828.465 321.735 829.944 324.229 830.988 327.071C832.09 329.855 832.641 332.871 832.641 336.119C832.641 340.527 831.771 344.529 830.031 348.125C828.349 351.721 826 354.592 822.984 356.738C820.026 358.826 816.604 359.87 812.718 359.87ZM808.803 349.952C810.601 349.952 812.225 349.575 813.675 348.821C815.125 348.067 816.372 347.052 817.416 345.776C818.518 344.442 819.33 342.963 819.852 341.339C820.432 339.657 820.722 337.917 820.722 336.119C820.722 334.205 820.403 332.436 819.765 330.812C819.185 329.188 818.315 327.767 817.155 326.549C815.995 325.273 814.632 324.287 813.066 323.591C811.558 322.895 809.905 322.547 808.107 322.547C807.005 322.547 805.874 322.75 804.714 323.156C803.612 323.504 802.539 324.026 801.495 324.722C800.451 325.418 799.523 326.23 798.711 327.158C797.957 328.086 797.406 329.101 797.058 330.203V340.904C797.754 342.586 798.682 344.123 799.842 345.515C801.06 346.907 802.452 348.009 804.018 348.821C805.584 349.575 807.179 349.952 808.803 349.952ZM867.683 323.504C864.145 323.504 860.984 324.2 858.2 325.592C855.416 326.926 853.415 328.869 852.197 331.421V359H840.539V313.412H851.24V323.156C852.864 320.024 854.923 317.559 857.417 315.761C859.911 313.963 862.55 312.977 865.334 312.803C865.972 312.803 866.465 312.803 866.813 312.803C867.161 312.803 867.451 312.832 867.683 312.89V323.504ZM894.643 359.87C890.931 359.87 887.596 359.261 884.638 358.043C881.68 356.767 879.157 355.027 877.069 352.823C875.039 350.619 873.473 348.096 872.371 345.254C871.269 342.412 870.718 339.425 870.718 336.293C870.718 333.103 871.269 330.087 872.371 327.245C873.473 324.403 875.039 321.88 877.069 319.676C879.157 317.472 881.68 315.761 884.638 314.543C887.596 313.267 890.931 312.629 894.643 312.629C898.355 312.629 901.661 313.267 904.561 314.543C907.519 315.761 910.042 317.472 912.13 319.676C914.218 321.88 915.784 324.403 916.828 327.245C917.93 330.087 918.481 333.103 918.481 336.293C918.481 339.425 917.93 342.412 916.828 345.254C915.784 348.096 914.218 350.619 912.13 352.823C910.1 355.027 907.606 356.767 904.648 358.043C901.69 359.261 898.355 359.87 894.643 359.87ZM882.724 336.293C882.724 338.961 883.246 341.339 884.29 343.427C885.334 345.457 886.755 347.052 888.553 348.212C890.351 349.372 892.381 349.952 894.643 349.952C896.847 349.952 898.848 349.372 900.646 348.212C902.444 346.994 903.865 345.37 904.909 343.34C906.011 341.252 906.562 338.874 906.562 336.206C906.562 333.596 906.011 331.247 904.909 329.159C903.865 327.071 902.444 325.447 900.646 324.287C898.848 323.127 896.847 322.547 894.643 322.547C892.381 322.547 890.351 323.156 888.553 324.374C886.755 325.534 885.334 327.158 884.29 329.246C883.246 331.276 882.724 333.625 882.724 336.293ZM937.088 359L920.297 313.412H932.39L943.874 348.386L955.445 313.412H966.494L949.79 359H937.088ZM992.265 359.87C988.611 359.87 985.305 359.261 982.347 358.043C979.389 356.767 976.866 355.056 974.778 352.91C972.69 350.706 971.066 348.212 969.906 345.428C968.804 342.586 968.253 339.599 968.253 336.467C968.253 332.117 969.21 328.144 971.124 324.548C973.096 320.952 975.88 318.081 979.476 315.935C983.13 313.731 987.422 312.629 992.352 312.629C997.34 312.629 1001.6 313.731 1005.14 315.935C1008.68 318.081 1011.38 320.952 1013.23 324.548C1015.15 328.086 1016.1 331.914 1016.1 336.032C1016.1 336.728 1016.07 337.453 1016.02 338.207C1015.96 338.903 1015.9 339.483 1015.84 339.947H980.607C980.839 342.267 981.506 344.297 982.608 346.037C983.768 347.777 985.218 349.111 986.958 350.039C988.756 350.909 990.67 351.344 992.7 351.344C995.02 351.344 997.195 350.793 999.225 349.691C1001.31 348.531 1002.73 347.023 1003.49 345.167L1013.49 347.951C1012.39 350.271 1010.8 352.33 1008.71 354.128C1006.68 355.926 1004.27 357.347 1001.49 358.391C998.703 359.377 995.629 359.87 992.265 359.87ZM980.346 332.552H1004.18C1003.95 330.232 1003.29 328.231 1002.18 326.549C1001.14 324.809 999.747 323.475 998.007 322.547C996.267 321.561 994.324 321.068 992.178 321.068C990.09 321.068 988.176 321.561 986.436 322.547C984.754 323.475 983.362 324.809 982.26 326.549C981.216 328.231 980.578 330.232 980.346 332.552ZM1020.42 336.206C1020.42 331.798 1021.29 327.825 1023.03 324.287C1024.77 320.691 1027.18 317.849 1030.25 315.761C1033.33 313.673 1036.84 312.629 1040.78 312.629C1044.14 312.629 1047.16 313.47 1049.83 315.152C1052.55 316.776 1054.67 318.864 1056.18 321.416V295.49H1067.84V345.95C1067.84 347.168 1068.04 348.038 1068.45 348.56C1068.85 349.082 1069.55 349.401 1070.53 349.517V359C1068.5 359.406 1066.85 359.609 1065.57 359.609C1063.49 359.609 1061.75 359.087 1060.35 358.043C1059.02 356.999 1058.27 355.636 1058.09 353.954L1057.92 351.083C1056.24 353.925 1053.95 356.1 1051.05 357.608C1048.2 359.116 1045.22 359.87 1042.08 359.87C1038.95 359.87 1036.05 359.261 1033.38 358.043C1030.77 356.825 1028.48 355.143 1026.51 352.997C1024.6 350.851 1023.09 348.357 1021.99 345.515C1020.94 342.615 1020.42 339.512 1020.42 336.206ZM1056.18 342.296V331.421C1055.6 329.739 1054.67 328.231 1053.39 326.897C1052.12 325.563 1050.7 324.519 1049.13 323.765C1047.57 322.953 1046 322.547 1044.43 322.547C1042.64 322.547 1041.01 322.924 1039.56 323.678C1038.11 324.432 1036.84 325.447 1035.73 326.723C1034.69 327.999 1033.88 329.478 1033.3 331.16C1032.78 332.842 1032.51 334.611 1032.51 336.467C1032.51 338.323 1032.8 340.092 1033.38 341.774C1034.02 343.398 1034.92 344.819 1036.08 346.037C1037.24 347.255 1038.58 348.212 1040.08 348.908C1041.65 349.604 1043.33 349.952 1045.13 349.952C1046.23 349.952 1047.33 349.778 1048.44 349.43C1049.6 349.024 1050.67 348.502 1051.65 347.864C1052.7 347.168 1053.6 346.356 1054.35 345.428C1055.16 344.442 1055.77 343.398 1056.18 342.296Z" fill="white"/>
</svg>
