<svg width="82" height="28" viewBox="0 0 82 28" fill="none" xmlns="http://www.w3.org/2000/svg">
<rect width="82" height="28" rx="6" fill="white"/>
<path d="M5.53 19V6.544H8.032L11.56 17.074L15.088 6.544H17.59V19H16.204V8.02H15.952L12.334 18.55H10.786L7.168 8.02H6.916V19H5.53ZM19.9293 14.482C19.9293 12.838 20.2233 11.65 20.8113 10.918C21.3993 10.186 22.3893 9.82 23.7813 9.82C25.1853 9.82 26.1753 10.186 26.7513 10.918C27.3393 11.65 27.6333 12.838 27.6333 14.482C27.6333 16.126 27.3573 17.32 26.8053 18.064C26.2533 18.808 25.2453 19.18 23.7813 19.18C22.3173 19.18 21.3093 18.808 20.7573 18.064C20.2053 17.32 19.9293 16.126 19.9293 14.482ZM21.3153 14.464C21.3153 15.772 21.4713 16.69 21.7833 17.218C22.1073 17.746 22.7733 18.01 23.7813 18.01C24.8013 18.01 25.4673 17.752 25.7793 17.236C26.0913 16.708 26.2473 15.784 26.2473 14.464C26.2473 13.144 26.0733 12.238 25.7253 11.746C25.3773 11.242 24.7293 10.99 23.7813 10.99C22.8453 10.99 22.1973 11.242 21.8373 11.746C21.4893 12.238 21.3153 13.144 21.3153 14.464ZM31.1851 19H29.8351V6.076H31.1851V10.504C32.1451 10.048 33.0691 9.82 33.9571 9.82C35.1571 9.82 35.9611 10.144 36.3691 10.792C36.7891 11.44 36.9991 12.592 36.9991 14.248V19H35.6491V14.284C35.6491 13.036 35.5231 12.184 35.2711 11.728C35.0311 11.26 34.5151 11.026 33.7231 11.026C32.9671 11.026 32.2351 11.164 31.5271 11.44L31.1851 11.566V19ZM41.123 19H39.737V6.544H41.123V12.34L43.175 12.268L46.361 6.544H47.945L44.381 12.808L48.143 19H46.505L43.193 13.492L41.123 13.564V19ZM56.1051 12.718V17.326C56.1411 17.77 56.4891 18.034 57.1491 18.118L57.0951 19.18C56.1471 19.18 55.4331 18.94 54.9531 18.46C53.8731 18.94 52.7931 19.18 51.7131 19.18C50.8851 19.18 50.2551 18.946 49.8231 18.478C49.3911 18.01 49.1751 17.338 49.1751 16.462C49.1751 15.586 49.3971 14.944 49.8411 14.536C50.2851 14.116 50.9811 13.858 51.9291 13.762L54.7551 13.492V12.718C54.7551 12.106 54.6231 11.668 54.3591 11.404C54.0951 11.14 53.7351 11.008 53.2791 11.008C52.3191 11.008 51.3231 11.068 50.2911 11.188L49.7331 11.242L49.6791 10.216C50.9991 9.952 52.1691 9.82 53.1891 9.82C54.2091 9.82 54.9471 10.054 55.4031 10.522C55.8711 10.99 56.1051 11.722 56.1051 12.718ZM50.5611 16.39C50.5611 17.494 51.0171 18.046 51.9291 18.046C52.7451 18.046 53.5491 17.908 54.3411 17.632L54.7551 17.488V14.518L52.0911 14.77C51.5511 14.818 51.1611 14.974 50.9211 15.238C50.6811 15.502 50.5611 15.886 50.5611 16.39ZM62.7467 9.82C63.9587 9.82 64.8047 10.168 65.2847 10.864C65.7767 11.548 66.0227 12.754 66.0227 14.482C66.0227 16.21 65.7167 17.428 65.1047 18.136C64.5047 18.832 63.3947 19.18 61.7747 19.18C61.2707 19.18 60.4367 19.132 59.2727 19.036L58.7687 18.982V6.076H60.1007V10.45C61.0127 10.03 61.8947 9.82 62.7467 9.82ZM61.7567 17.974C62.9327 17.974 63.7067 17.71 64.0787 17.182C64.4627 16.642 64.6547 15.736 64.6547 14.464C64.6547 13.192 64.5047 12.304 64.2047 11.8C63.9047 11.284 63.3707 11.026 62.6027 11.026C61.9067 11.026 61.1927 11.158 60.4607 11.422L60.1007 11.548V17.884C60.8807 17.944 61.4327 17.974 61.7567 17.974ZM68.2433 19V10H69.5933V19H68.2433ZM68.2433 7.966V6.4H69.5933V7.966H68.2433ZM72.1808 19V10H73.5128V11.224C74.5568 10.504 75.6548 10.03 76.8068 9.802V11.17C76.3028 11.266 75.7748 11.416 75.2228 11.62C74.6828 11.824 74.2688 12.004 73.9808 12.16L73.5308 12.394V19H72.1808Z" fill="black"/>
<path d="M34.7805 21L5.9024 21" stroke="black"/>
<path d="M34.7805 23L5.9024 23" stroke="black"/>
<ellipse cx="6.66235" cy="22" rx="0.759949" ry="1" fill="black"/>
<ellipse cx="11.222" cy="22" rx="0.759949" ry="1" fill="black"/>
<ellipse cx="15.7817" cy="22" rx="0.759949" ry="1" fill="black"/>
<ellipse cx="21.8614" cy="22" rx="0.759949" ry="1" fill="black"/>
<ellipse cx="28.7009" cy="22" rx="0.759949" ry="1" fill="black"/>
<ellipse cx="34.0206" cy="22" rx="0.759949" ry="1" fill="black"/>
<ellipse cx="34.0206" cy="22" rx="0.759949" ry="1" fill="black"/>
<path d="M35 21H37.0155C37.4953 21 37.8302 21.4753 37.6689 21.9272V21.9272C37.6065 22.1017 37.4769 22.2441 37.3089 22.3225L36.7143 22.6L36.2455 22.8188C35.9897 22.9381 35.7109 23 35.4286 23V23H35" stroke="black"/>
</svg>
