<svg width="54" height="54" viewBox="0 0 54 54" fill="none" xmlns="http://www.w3.org/2000/svg">
<path d="M27 0C12.1166 0 0 12.1166 0 27C0 41.8834 12.1166 54 27 54C41.8834 54 54 41.8834 54 27C54 12.1166 41.8993 0 27 0ZM46.1449 10.8127H42.5671L44.5071 9.0636C45.0795 9.60424 45.6201 10.1926 46.1449 10.8127ZM41.4541 47.4965V21.6254H38.2579L31.1979 28.2721L37.447 28.3198L12.6095 47.5442C12.5459 47.4965 12.4823 47.4647 12.4346 47.417L23.6449 33.3763H18.9382L27.6519 21.6254H6.26502V41.1042C3.51414 37.0813 1.90813 32.2314 1.90813 27C1.90813 13.1661 13.1661 1.90813 27 1.90813C31.1184 1.90813 35.03 2.90989 38.4647 4.67491L30.1802 15.9806H34.8233L22.7067 31.3569L47.2261 12.1643C50.2791 16.3145 52.0919 21.4505 52.0919 27C52.0919 35.4594 47.8781 42.9488 41.4541 47.4965Z" fill="white"/>
</svg>
