<svg width="405" height="204" viewBox="0 0 405 204" fill="none" xmlns="http://www.w3.org/2000/svg">
<path d="M43.739 18.412C43.333 18.006 42.579 17.455 41.477 16.759C40.433 16.063 39.128 15.396 37.562 14.758C36.054 14.12 34.401 13.569 32.603 13.105C30.805 12.583 28.978 12.322 27.122 12.322C23.874 12.322 21.409 12.931 19.727 14.149C18.103 15.367 17.291 17.078 17.291 19.282C17.291 20.964 17.813 22.298 18.857 23.284C19.901 24.27 21.467 25.111 23.555 25.807C25.643 26.503 28.253 27.257 31.385 28.069C35.445 29.055 38.954 30.273 41.912 31.723C44.928 33.115 47.219 34.971 48.785 37.291C50.409 39.553 51.221 42.569 51.221 46.339C51.221 49.645 50.612 52.487 49.394 54.865C48.176 57.185 46.494 59.07 44.348 60.52C42.202 61.97 39.766 63.043 37.04 63.739C34.314 64.377 31.414 64.696 28.34 64.696C25.266 64.696 22.192 64.377 19.118 63.739C16.044 63.101 13.086 62.202 10.244 61.042C7.402 59.824 4.792 58.374 2.414 56.692L7.721 46.339C8.243 46.861 9.171 47.557 10.505 48.427C11.839 49.239 13.463 50.08 15.377 50.95C17.291 51.762 19.379 52.458 21.641 53.038C23.903 53.618 26.194 53.908 28.514 53.908C31.762 53.908 34.227 53.357 35.909 52.255C37.591 51.153 38.432 49.587 38.432 47.557C38.432 45.701 37.765 44.251 36.431 43.207C35.097 42.163 33.241 41.264 30.863 40.51C28.485 39.698 25.672 38.828 22.424 37.9C18.538 36.798 15.29 35.58 12.68 34.246C10.07 32.854 8.127 31.114 6.851 29.026C5.575 26.938 4.937 24.328 4.937 21.196C4.937 16.962 5.923 13.424 7.895 10.582C9.925 7.682 12.651 5.507 16.073 4.057C19.495 2.549 23.294 1.795 27.47 1.795C30.37 1.795 33.096 2.114 35.648 2.752C38.258 3.39 40.694 4.231 42.956 5.275C45.218 6.319 47.248 7.45 49.046 8.668L43.739 18.412ZM85.4609 61.651C84.4749 62.057 83.2859 62.521 81.8939 63.043C80.5019 63.565 78.9939 63.971 77.3699 64.261C75.8039 64.609 74.2089 64.783 72.5849 64.783C70.4389 64.783 68.4669 64.406 66.6689 63.652C64.8709 62.898 63.4209 61.709 62.3189 60.085C61.2749 58.403 60.7529 56.228 60.7529 53.56V27.373H54.7499V18.412H60.7529V3.622H72.4109V18.412H81.9809V27.373H72.4109V49.645C72.4689 51.211 72.9039 52.342 73.7159 53.038C74.5279 53.734 75.5429 54.082 76.7609 54.082C77.9789 54.082 79.1679 53.879 80.3279 53.473C81.4879 53.067 82.4159 52.719 83.1119 52.429L85.4609 61.651ZM92.3197 72.874C93.3637 73.106 94.3207 73.309 95.1907 73.483C96.1187 73.657 96.9017 73.744 97.5397 73.744C98.6417 73.744 99.5407 73.454 100.237 72.874C100.991 72.352 101.716 71.366 102.412 69.916C103.108 68.524 103.833 66.552 104.587 64L86.5777 18.412H98.6707L110.938 52.081L121.726 18.412H132.862L113.722 73.048C113.026 75.078 111.953 76.905 110.503 78.529C109.111 80.211 107.342 81.516 105.196 82.444C103.108 83.43 100.759 83.923 98.1487 83.923C97.2207 83.923 96.2927 83.836 95.3647 83.662C94.4367 83.546 93.4217 83.314 92.3197 82.966V72.874ZM139.109 0.489998H150.767V49.384C150.767 51.472 151.115 52.893 151.811 53.647C152.507 54.343 153.464 54.691 154.682 54.691C155.61 54.691 156.567 54.575 157.553 54.343C158.539 54.111 159.409 53.821 160.163 53.473L161.729 62.347C160.163 63.101 158.336 63.681 156.248 64.087C154.16 64.493 152.275 64.696 150.593 64.696C146.939 64.696 144.097 63.739 142.067 61.825C140.095 59.853 139.109 57.069 139.109 53.473V0.489998ZM187.949 64.87C184.295 64.87 180.989 64.261 178.031 63.043C175.073 61.767 172.55 60.056 170.462 57.91C168.374 55.706 166.75 53.212 165.59 50.428C164.488 47.586 163.937 44.599 163.937 41.467C163.937 37.117 164.894 33.144 166.808 29.548C168.78 25.952 171.564 23.081 175.16 20.935C178.814 18.731 183.106 17.629 188.036 17.629C193.024 17.629 197.287 18.731 200.825 20.935C204.363 23.081 207.06 25.952 208.916 29.548C210.83 33.086 211.787 36.914 211.787 41.032C211.787 41.728 211.758 42.453 211.7 43.207C211.642 43.903 211.584 44.483 211.526 44.947H176.291C176.523 47.267 177.19 49.297 178.292 51.037C179.452 52.777 180.902 54.111 182.642 55.039C184.44 55.909 186.354 56.344 188.384 56.344C190.704 56.344 192.879 55.793 194.909 54.691C196.997 53.531 198.418 52.023 199.172 50.167L209.177 52.951C208.075 55.271 206.48 57.33 204.392 59.128C202.362 60.926 199.955 62.347 197.171 63.391C194.387 64.377 191.313 64.87 187.949 64.87ZM176.03 37.552H199.868C199.636 35.232 198.969 33.231 197.867 31.549C196.823 29.809 195.431 28.475 193.691 27.547C191.951 26.561 190.008 26.068 187.862 26.068C185.774 26.068 183.86 26.561 182.12 27.547C180.438 28.475 179.046 29.809 177.944 31.549C176.9 33.231 176.262 35.232 176.03 37.552ZM283.637 38.509C283.637 43.613 282.651 48.166 280.679 52.168C278.765 56.112 276.097 59.215 272.675 61.477C269.311 63.739 265.483 64.87 261.191 64.87C256.899 64.87 253.042 63.739 249.62 61.477C246.256 59.215 243.588 56.112 241.616 52.168C239.702 48.166 238.745 43.613 238.745 38.509C238.745 33.405 239.702 28.881 241.616 24.937C243.588 20.935 246.256 17.803 249.62 15.541C253.042 13.221 256.899 12.061 261.191 12.061C265.483 12.061 269.311 13.221 272.675 15.541C276.097 17.803 278.765 20.935 280.679 24.937C282.651 28.881 283.637 33.405 283.637 38.509ZM271.892 38.509C271.892 35.377 271.428 32.651 270.5 30.331C269.63 27.953 268.383 26.097 266.759 24.763C265.135 23.429 263.279 22.762 261.191 22.762C259.045 22.762 257.16 23.429 255.536 24.763C253.912 26.097 252.636 27.953 251.708 30.331C250.838 32.651 250.403 35.377 250.403 38.509C250.403 41.641 250.838 44.367 251.708 46.687C252.636 49.007 253.912 50.834 255.536 52.168C257.16 53.502 259.045 54.169 261.191 54.169C263.279 54.169 265.106 53.502 266.672 52.168C268.296 50.834 269.572 49.007 270.5 46.687C271.428 44.309 271.892 41.583 271.892 38.509ZM321.07 43.468C323.506 43.874 325.623 44.802 327.421 46.252C329.219 47.644 330.611 49.442 331.597 51.646C332.641 53.85 333.163 56.286 333.163 58.954C333.163 62.55 332.235 65.682 330.379 68.35C328.523 71.018 325.884 73.077 322.462 74.527C319.098 76.035 315.125 76.789 310.543 76.789C306.135 76.789 302.22 76.064 298.798 74.614C295.434 73.222 292.621 71.163 290.359 68.437L296.971 60.172C298.479 62.028 300.277 63.478 302.365 64.522C304.511 65.624 307.121 66.175 310.195 66.175C313.733 66.175 316.43 65.45 318.286 64C320.142 62.608 321.07 60.491 321.07 57.649C321.07 54.633 319.997 52.313 317.851 50.689C315.705 49.065 312.457 48.253 308.107 48.253H305.671V39.553H308.368C311.906 39.553 314.661 38.741 316.633 37.117C318.663 35.493 319.678 33.463 319.678 31.027C319.678 29.461 319.301 28.156 318.547 27.112C317.793 26.068 316.749 25.285 315.415 24.763C314.139 24.241 312.631 23.98 310.891 23.98C308.281 23.98 305.903 24.589 303.757 25.807C301.611 27.025 299.871 28.736 298.537 30.94L291.229 22.762C292.447 20.964 294.1 19.427 296.188 18.151C298.334 16.817 300.77 15.773 303.496 15.019C306.28 14.265 309.18 13.888 312.196 13.888C316.14 13.888 319.591 14.526 322.549 15.802C325.565 17.078 327.914 18.876 329.596 21.196C331.278 23.516 332.119 26.213 332.119 29.287C332.119 31.549 331.655 33.695 330.727 35.725C329.799 37.755 328.494 39.466 326.812 40.858C325.188 42.192 323.274 43.062 321.07 43.468ZM23.729 123.23H35.909L58.616 185H46.262L40.52 169.601H18.944L13.289 185H0.935L23.729 123.23ZM38.345 161.162L29.819 135.671L20.945 161.162H38.345ZM91.5781 185.87C88.0401 185.87 84.9081 185.087 82.1821 183.521C79.5141 181.897 77.4261 179.722 75.9181 176.996V203.531H64.2601V139.412H74.4391V147.242C76.1791 144.574 78.3831 142.486 81.0511 140.978C83.7191 139.412 86.7641 138.629 90.1861 138.629C93.2601 138.629 96.0731 139.238 98.6251 140.456C101.235 141.674 103.497 143.385 105.411 145.589C107.325 147.735 108.804 150.229 109.848 153.071C110.95 155.855 111.501 158.871 111.501 162.119C111.501 166.527 110.631 170.529 108.891 174.125C107.209 177.721 104.86 180.592 101.844 182.738C98.8861 184.826 95.4641 185.87 91.5781 185.87ZM87.6631 175.952C89.4611 175.952 91.0851 175.575 92.5351 174.821C93.9851 174.067 95.2321 173.052 96.2761 171.776C97.3781 170.442 98.1901 168.963 98.7121 167.339C99.2921 165.657 99.5821 163.917 99.5821 162.119C99.5821 160.205 99.2631 158.436 98.6251 156.812C98.0451 155.188 97.1751 153.767 96.0151 152.549C94.8551 151.273 93.4921 150.287 91.9261 149.591C90.4181 148.895 88.7651 148.547 86.9671 148.547C85.8651 148.547 84.7341 148.75 83.5741 149.156C82.4721 149.504 81.3991 150.026 80.3551 150.722C79.3111 151.418 78.3831 152.23 77.5711 153.158C76.8171 154.086 76.2661 155.101 75.9181 156.203V166.904C76.6141 168.586 77.5421 170.123 78.7021 171.515C79.9201 172.907 81.3121 174.009 82.8781 174.821C84.4441 175.575 86.0391 175.952 87.6631 175.952ZM146.718 185.87C143.18 185.87 140.048 185.087 137.322 183.521C134.654 181.897 132.566 179.722 131.058 176.996V203.531H119.4V139.412H129.579V147.242C131.319 144.574 133.523 142.486 136.191 140.978C138.859 139.412 141.904 138.629 145.326 138.629C148.4 138.629 151.213 139.238 153.765 140.456C156.375 141.674 158.637 143.385 160.551 145.589C162.465 147.735 163.944 150.229 164.988 153.071C166.09 155.855 166.641 158.871 166.641 162.119C166.641 166.527 165.771 170.529 164.031 174.125C162.349 177.721 160 180.592 156.984 182.738C154.026 184.826 150.604 185.87 146.718 185.87ZM142.803 175.952C144.601 175.952 146.225 175.575 147.675 174.821C149.125 174.067 150.372 173.052 151.416 171.776C152.518 170.442 153.33 168.963 153.852 167.339C154.432 165.657 154.722 163.917 154.722 162.119C154.722 160.205 154.403 158.436 153.765 156.812C153.185 155.188 152.315 153.767 151.155 152.549C149.995 151.273 148.632 150.287 147.066 149.591C145.558 148.895 143.905 148.547 142.107 148.547C141.005 148.547 139.874 148.75 138.714 149.156C137.612 149.504 136.539 150.026 135.495 150.722C134.451 151.418 133.523 152.23 132.711 153.158C131.957 154.086 131.406 155.101 131.058 156.203V166.904C131.754 168.586 132.682 170.123 133.842 171.515C135.06 172.907 136.452 174.009 138.018 174.821C139.584 175.575 141.179 175.952 142.803 175.952ZM201.683 149.504C198.145 149.504 194.984 150.2 192.2 151.592C189.416 152.926 187.415 154.869 186.197 157.421V185H174.539V139.412H185.24V149.156C186.864 146.024 188.923 143.559 191.417 141.761C193.911 139.963 196.55 138.977 199.334 138.803C199.972 138.803 200.465 138.803 200.813 138.803C201.161 138.803 201.451 138.832 201.683 138.89V149.504ZM228.643 185.87C224.931 185.87 221.596 185.261 218.638 184.043C215.68 182.767 213.157 181.027 211.069 178.823C209.039 176.619 207.473 174.096 206.371 171.254C205.269 168.412 204.718 165.425 204.718 162.293C204.718 159.103 205.269 156.087 206.371 153.245C207.473 150.403 209.039 147.88 211.069 145.676C213.157 143.472 215.68 141.761 218.638 140.543C221.596 139.267 224.931 138.629 228.643 138.629C232.355 138.629 235.661 139.267 238.561 140.543C241.519 141.761 244.042 143.472 246.13 145.676C248.218 147.88 249.784 150.403 250.828 153.245C251.93 156.087 252.481 159.103 252.481 162.293C252.481 165.425 251.93 168.412 250.828 171.254C249.784 174.096 248.218 176.619 246.13 178.823C244.1 181.027 241.606 182.767 238.648 184.043C235.69 185.261 232.355 185.87 228.643 185.87ZM216.724 162.293C216.724 164.961 217.246 167.339 218.29 169.427C219.334 171.457 220.755 173.052 222.553 174.212C224.351 175.372 226.381 175.952 228.643 175.952C230.847 175.952 232.848 175.372 234.646 174.212C236.444 172.994 237.865 171.37 238.909 169.34C240.011 167.252 240.562 164.874 240.562 162.206C240.562 159.596 240.011 157.247 238.909 155.159C237.865 153.071 236.444 151.447 234.646 150.287C232.848 149.127 230.847 148.547 228.643 148.547C226.381 148.547 224.351 149.156 222.553 150.374C220.755 151.534 219.334 153.158 218.29 155.246C217.246 157.276 216.724 159.625 216.724 162.293ZM271.088 185L254.297 139.412H266.39L277.874 174.386L289.445 139.412H300.494L283.79 185H271.088ZM326.265 185.87C322.611 185.87 319.305 185.261 316.347 184.043C313.389 182.767 310.866 181.056 308.778 178.91C306.69 176.706 305.066 174.212 303.906 171.428C302.804 168.586 302.253 165.599 302.253 162.467C302.253 158.117 303.21 154.144 305.124 150.548C307.096 146.952 309.88 144.081 313.476 141.935C317.13 139.731 321.422 138.629 326.352 138.629C331.34 138.629 335.603 139.731 339.141 141.935C342.679 144.081 345.376 146.952 347.232 150.548C349.146 154.086 350.103 157.914 350.103 162.032C350.103 162.728 350.074 163.453 350.016 164.207C349.958 164.903 349.9 165.483 349.842 165.947H314.607C314.839 168.267 315.506 170.297 316.608 172.037C317.768 173.777 319.218 175.111 320.958 176.039C322.756 176.909 324.67 177.344 326.7 177.344C329.02 177.344 331.195 176.793 333.225 175.691C335.313 174.531 336.734 173.023 337.488 171.167L347.493 173.951C346.391 176.271 344.796 178.33 342.708 180.128C340.678 181.926 338.271 183.347 335.487 184.391C332.703 185.377 329.629 185.87 326.265 185.87ZM314.346 158.552H338.184C337.952 156.232 337.285 154.231 336.183 152.549C335.139 150.809 333.747 149.475 332.007 148.547C330.267 147.561 328.324 147.068 326.178 147.068C324.09 147.068 322.176 147.561 320.436 148.547C318.754 149.475 317.362 150.809 316.26 152.549C315.216 154.231 314.578 156.232 314.346 158.552ZM354.421 162.206C354.421 157.798 355.291 153.825 357.031 150.287C358.771 146.691 361.178 143.849 364.252 141.761C367.326 139.673 370.835 138.629 374.779 138.629C378.143 138.629 381.159 139.47 383.827 141.152C386.553 142.776 388.67 144.864 390.178 147.416V121.49H401.836V171.95C401.836 173.168 402.039 174.038 402.445 174.56C402.851 175.082 403.547 175.401 404.533 175.517V185C402.503 185.406 400.85 185.609 399.574 185.609C397.486 185.609 395.746 185.087 394.354 184.043C393.02 182.999 392.266 181.636 392.092 179.954L391.918 177.083C390.236 179.925 387.945 182.1 385.045 183.608C382.203 185.116 379.216 185.87 376.084 185.87C372.952 185.87 370.052 185.261 367.384 184.043C364.774 182.825 362.483 181.143 360.511 178.997C358.597 176.851 357.089 174.357 355.987 171.515C354.943 168.615 354.421 165.512 354.421 162.206ZM390.178 168.296V157.421C389.598 155.739 388.67 154.231 387.394 152.897C386.118 151.563 384.697 150.519 383.131 149.765C381.565 148.953 379.999 148.547 378.433 148.547C376.635 148.547 375.011 148.924 373.561 149.678C372.111 150.432 370.835 151.447 369.733 152.723C368.689 153.999 367.877 155.478 367.297 157.16C366.775 158.842 366.514 160.611 366.514 162.467C366.514 164.323 366.804 166.092 367.384 167.774C368.022 169.398 368.921 170.819 370.081 172.037C371.241 173.255 372.575 174.212 374.083 174.908C375.649 175.604 377.331 175.952 379.129 175.952C380.231 175.952 381.333 175.778 382.435 175.43C383.595 175.024 384.668 174.502 385.654 173.864C386.698 173.168 387.597 172.356 388.351 171.428C389.163 170.442 389.772 169.398 390.178 168.296Z" fill="white"/>
</svg>
